<?xml version="1.0" encoding="utf-8"?>
<!-- Generator: Adobe Illustrator 26.2.1, SVG Export Plug-In . SVG Version: 6.00 Build 0)  -->
<svg version="1.1" id="Eye_Icon" xmlns="http://www.w3.org/2000/svg" xmlns:xlink="http://www.w3.org/1999/xlink" x="0px" y="0px"
	 viewBox="0 0 500 500" style="enable-background:new 0 0 500 500;" xml:space="preserve">
<style type="text/css">
	.st0{fill:#878787;}
</style>
<path class="st0" d="M249.7,199.9c-27.7,0-50.1,22.4-50.1,50.1c0,27.7,22.4,50.1,50.1,50.1c27.7,0,50.1-22.4,50.1-50.1
	C299.8,222.3,277.4,199.9,249.7,199.9L249.7,199.9z M50.1,199.9C22.4,199.9,0,222.3,0,250c0,27.7,22.4,50.1,50.1,50.1
	c27.7,0,50.1-22.4,50.1-50.1C100.1,222.3,77.6,199.9,50.1,199.9L50.1,199.9z M449.9,199.9c-27.7,0-50.1,22.4-50.1,50.1
	c0,27.7,22.4,50.1,50.1,50.1c27.7,0,50.1-22.4,50.1-50.1C500,222.3,477.6,199.9,449.9,199.9L449.9,199.9z"/>
</svg>
