<?xml version="1.0" encoding="utf-8"?>
<!-- Generator: Adobe Illustrator 16.0.0, SVG Export Plug-In . SVG Version: 6.00 Build 0)  -->
<!DOCTYPE svg PUBLIC "-//W3C//DTD SVG 1.1//EN" "http://www.w3.org/Graphics/SVG/1.1/DTD/svg11.dtd">
<svg version="1.1" id="Eye_Icon" xmlns="http://www.w3.org/2000/svg" xmlns:xlink="http://www.w3.org/1999/xlink" x="0px" y="0px" width="500px" height="500px" viewBox="0 0 500 500" enable-background="new 0 0 500 500" xml:space="preserve">
	<path fill="#FFFFFF" d="M434.98,250.337c0-0.113,0.004-0.224,0.004-0.337c0-0.112-0.004-0.223-0.004-0.335
	c0.139-28.343,17.75-50.77,44.003-66.212c-4.771-15.862-11.093-31.246-18.845-45.558c-6.326,1.651-12.396,2.426-18.223,2.426
	c-21.521,0-39.766-10.562-55.721-26.518c-20.155-20.155-26.357-44.246-18.604-73.941c-14.312-7.753-29.573-14.073-45.557-18.843
	c-15.456,26.391-43.232,43.888-71.758,44c-0.093,0-0.185-0.003-0.277-0.003s-0.184,0.003-0.276,0.003
	c-28.408-0.113-56.304-17.61-71.758-44.002c-15.981,4.771-31.247,11.091-45.558,18.843c7.751,29.696,1.551,53.667-18.604,73.941
	c-15.88,15.881-34.205,26.505-55.73,26.505c-5.794,0-11.82-0.77-18.093-2.414c-7.871,14.312-14.191,29.577-18.963,45.558
	c25.46,14.91,42.747,36.327,44.039,63.292c-0.019,1.085-0.041,2.169-0.041,3.258c0,1.096,0.022,2.188,0.042,3.277
	c-1.291,27.356-18.58,53.847-44.041,68.756c4.771,15.98,11.091,31.245,18.843,45.557c8.247-2.152,16.054-3.229,23.458-3.229
	c19.259,0,35.806,7.278,50.364,21.837c20.275,20.15,26.357,44.246,18.604,73.94c14.432,7.753,29.578,14.071,45.558,18.846
	c15.447-26.379,43.321-43.874,71.715-44.006c0.147,0.002,0.294,0.007,0.441,0.007c0.099,0,0.197-0.004,0.296-0.004
	c28.359,0.17,56.188,17.652,71.616,44.003c15.981-4.771,31.248-11.093,45.562-18.846c-7.756-29.694-1.551-53.668,18.603-73.94
	c15.882-15.881,34.209-26.505,55.792-26.505c5.81,0,11.853,0.77,18.149,2.413c7.751-14.433,14.073-29.694,18.846-45.56
	C452.61,301.104,435.118,278.68,434.98,250.337z M400.984,250c0,40.329-15.705,78.245-44.223,106.762
	c-28.518,28.519-66.434,44.224-106.763,44.224s-78.245-15.705-106.762-44.224C114.721,328.245,99.016,290.329,99.016,250
	s15.705-78.245,44.222-106.762C171.755,114.721,209.671,99.016,250,99.016s78.245,15.705,106.762,44.222
	C385.279,171.755,400.984,209.671,400.984,250z" />
</svg>